# xmcd CD database file
#
# Track frame offsets:
#	150
#	11792
#	25458
#	37049
#	48016
#	59158
#	71779
#	83707
#	97042
#	111426
#	120421
#	136734
#	156681
#	172074
#	185975
#	198127
#	208104
#	223222
#
# Disc length: 3158 seconds
#
# Revision: 0
# Processed by: cddbd v1.5.2PL0 Copyright (c) Steve Scherf et al.
# Submitted via: CDex 1.70beta2
#
DISCID=1c0c5412
DTITLE=Various Artist - @Home - Jazz Music Collection
DYEAR=2007
DGENRE=Jazz
TTITLE0=01 - Frank Sinatra - You Do Something To Me
TTITLE1=02 - Sarah Vaughn - Ain't Misbehavin
TTITLE2=03 - Tony Bennet - Just In Time
TTITLE3=04 - Bobby Darin - Beautiful Things
TTITLE4=05 - Carmen McRae - The Best Is Yet To Come
TTITLE5=06 - Frankie Laine - Taking A Chance On Love
TTITLE6=07 - Rosemary Clooney - I Let A Song Go Out Of My Heart
TTITLE7=08 - Frankie Avelon - Tuxedo Junction
TTITLE8=09 - Doris Day ft Andre Previn - Close Your Eyes
TTITLE9=10 - Vic Damone - Lets Fall In Love
TTITLE10=11 - Nina Simone - My Baby Just Cares For Me
TTITLE11=12 - Miles Davis - It Ain't Necessarily So
TTITLE12=13 - Jamie Cullum - Devil May Care
TTITLE13=14 - Eartha Kitt - Lets Do It (Lets Fall In Love)
TTITLE14=15 - Buddy Greco - This Could Be The Start Of Something Big
TTITLE15=16 - Mel Torme - All That Jazz
TTITLE16=17 - Loius Armstrong - Mack The Knife
TTITLE17=18 - Billie Holiday - All Of Me
EXTD=YEAR: 2007
EXTT0=
EXTT1=
EXTT2=
EXTT3=
EXTT4=
EXTT5=
EXTT6=
EXTT7=
EXTT8=
EXTT9=
EXTT10=
EXTT11=
EXTT12=
EXTT13=
EXTT14=
EXTT15=
EXTT16=
EXTT17=
PLAYORDER=
